<?xml version="1.0" encoding="UTF-8"?>
<svg width="400" height="400" version="1.1" viewBox="0 0 400 400" xmlns="http://www.w3.org/2000/svg">
    <defs>
        <radialGradient id="star" cx="50%" cy="50%" r="50%" fx="50%" fy="50%">
            <stop offset="0%" style="stop-color:rgb(255,255,255);stop-opacity:1"/>
            <stop offset="100%" style="stop-color:rgb(255,255,255);stop-opacity:0"/>
        </radialGradient>
    </defs>
    
    <!-- Küçük yıldızlar -->
    <circle cx="50" cy="50" r="1" fill="url(#star)"/>
    <circle cx="150" cy="80" r="1.5" fill="url(#star)"/>
    <circle cx="250" cy="30" r="1" fill="url(#star)"/>
    <circle cx="350" cy="60" r="1.2" fill="url(#star)"/>
    <circle cx="100" cy="150" r="1" fill="url(#star)"/>
    <circle cx="200" cy="120" r="1.3" fill="url(#star)"/>
    <circle cx="300" cy="180" r="1" fill="url(#star)"/>
    <circle cx="80" cy="250" r="1.4" fill="url(#star)"/>
    <circle cx="180" cy="220" r="1" fill="url(#star)"/>
    <circle cx="280" cy="280" r="1.2" fill="url(#star)"/>
    <circle cx="380" cy="240" r="1" fill="url(#star)"/>
    <circle cx="130" cy="350" r="1.5" fill="url(#star)"/>
    <circle cx="230" cy="320" r="1" fill="url(#star)"/>
    <circle cx="330" cy="380" r="1.3" fill="url(#star)"/>
    
    <!-- Orta boy yıldızlar -->
    <circle cx="120" cy="100" r="2" fill="url(#star)"/>
    <circle cx="220" cy="180" r="2.2" fill="url(#star)"/>
    <circle cx="320" cy="140" r="2" fill="url(#star)"/>
    <circle cx="170" cy="280" r="2.3" fill="url(#star)"/>
    <circle cx="270" cy="240" r="2" fill="url(#star)"/>
    <circle cx="370" cy="300" r="2.1" fill="url(#star)"/>
    
    <!-- Büyük yıldızlar -->
    <circle cx="80" cy="200" r="3" fill="url(#star)"/>
    <circle cx="180" cy="150" r="3.2" fill="url(#star)"/>
    <circle cx="280" cy="100" r="3" fill="url(#star)"/>
    <circle cx="380" cy="180" r="3.1" fill="url(#star)"/>
    <circle cx="130" cy="300" r="3" fill="url(#star)"/>
    <circle cx="230" cy="250" r="3.3" fill="url(#star)"/>
    <circle cx="330" cy="350" r="3" fill="url(#star)"/>
</svg> 